<?xml version="1.0" encoding="utf-8"?>
<!-- Generator: Adobe Illustrator 19.1.0, SVG Export Plug-In . SVG Version: 6.00 Build 0)  -->
<svg version="1.1" id="Layer_1" xmlns="http://www.w3.org/2000/svg" xmlns:xlink="http://www.w3.org/1999/xlink" x="0px" y="0px"
	 viewBox="-349 230 600 242" style="enable-background:new -349 230 600 242;" xml:space="preserve">
<style type="text/css">
	.st0{fill:#FFFFFF;}
</style>
<g>
	<path class="st0" d="M-294.5,327v43h-16V264h18.1c8.9,0,15.6,0.6,20.1,1.9c4.6,1.2,8.6,3.6,12.1,7c6.1,6,9.1,13.5,9.1,22.5
		c0,9.7-3.3,17.4-9.7,23.1c-6.4,5.6-15.2,8.5-26.2,8.5H-294.5z M-294.5,312.1h6c14.7,0,22-5.7,22-17c0-10.9-7.6-16.4-22.7-16.4h-5.3
		V312.1z"/>
	<path class="st0" d="M-241.9,362.3c0-2.6,0.9-4.8,2.8-6.7c1.9-1.9,4.1-2.8,6.7-2.8c2.6,0,4.9,0.9,6.7,2.8c1.9,1.9,2.8,4.1,2.8,6.7
		c0,2.7-0.9,4.9-2.8,6.8c-1.8,1.8-4.1,2.7-6.7,2.7c-2.7,0-5-0.9-6.8-2.7C-240.9,367.4-241.9,365.1-241.9,362.3z M-240.1,346.4V264
		h15.5v82.4H-240.1z"/>
	<path class="st0" d="M-126.4,269.7v18.9c-9.2-7.7-18.8-11.6-28.7-11.6c-10.9,0-20.1,3.9-27.5,11.7c-7.5,7.8-11.3,17.3-11.3,28.6
		c0,11.1,3.8,20.5,11.3,28.2c7.5,7.6,16.7,11.5,27.6,11.5c5.6,0,10.4-0.9,14.4-2.7c2.2-0.9,4.5-2.2,6.8-3.7c2.4-1.6,4.8-3.4,7.5-5.6
		v19.3c-9.2,5.2-18.8,7.8-28.8,7.8c-15.2,0-28.1-5.3-38.8-15.9c-10.7-10.7-16-23.5-16-38.6c0-13.5,4.5-25.5,13.4-36.1
		c11-13,25.2-19.4,42.6-19.4C-144.5,261.9-135.3,264.5-126.4,269.7z"/>
	<path class="st0" d="M-49.9,344.3h-45.4l-11.8,25.7h-17.2l52.5-112.7L-21.2,370h-17.5L-49.9,344.3z M-56.4,329.2l-15.7-36l-16.5,36
		H-56.4z"/>
	<path class="st0" d="M43.5,279.7l-13,7.7c-2.4-4.2-4.7-7-6.9-8.2c-2.3-1.5-5.2-2.2-8.9-2.2c-4.4,0-8.1,1.3-11.1,3.8
		c-2.9,2.5-4.4,5.6-4.4,9.3c0,5.2,3.8,9.3,11.5,12.5l10.6,4.3c8.6,3.5,14.9,7.7,18.9,12.7s6,11.2,6,18.4c0,9.8-3.3,17.8-9.8,24.2
		c-6.5,6.4-14.7,9.6-24.4,9.6c-9.2,0-16.8-2.7-22.8-8.2c-5.9-5.5-9.6-13.1-11.1-23l16.2-3.6c0.7,6.2,2,10.5,3.8,12.9
		c3.3,4.6,8.1,6.9,14.4,6.9c5,0,9.1-1.7,12.4-5c3.3-3.3,4.9-7.6,4.9-12.7c0-2.1-0.3-3.9-0.9-5.7c-0.6-1.7-1.5-3.3-2.7-4.7
		s-2.8-2.8-4.7-4c-1.9-1.2-4.2-2.5-6.9-3.6l-10.2-4.3c-14.1-6-21.4-15-21.4-26.8c0-8,3-14.6,9.1-20s13.7-8.1,22.7-8.1
		C27.1,261.9,36.7,267.9,43.5,279.7z"/>
	<path class="st0" d="M117.1,279.7l-13,7.7c-2.4-4.2-4.7-7-6.9-8.2c-2.3-1.5-5.2-2.2-8.9-2.2c-4.4,0-8.1,1.3-11.1,3.8
		c-2.9,2.5-4.4,5.6-4.4,9.3c0,5.2,3.8,9.3,11.5,12.5l10.6,4.3c8.6,3.5,14.9,7.7,18.9,12.7s6,11.2,6,18.4c0,9.8-3.3,17.8-9.8,24.2
		c-6.5,6.4-14.7,9.6-24.4,9.6c-9.2,0-16.8-2.7-22.8-8.2c-5.9-5.5-9.6-13.1-11.1-23l16.2-3.6c0.7,6.2,2,10.5,3.8,12.9
		c3.3,4.6,8.1,6.9,14.4,6.9c5,0,9.1-1.7,12.4-5c3.3-3.3,4.9-7.6,4.9-12.7c0-2.1-0.3-3.9-0.9-5.7c-0.6-1.7-1.5-3.3-2.7-4.7
		s-2.8-2.8-4.7-4c-1.9-1.2-4.2-2.5-6.9-3.6L78,316.8c-14.5-6.1-21.8-15.1-21.8-26.9c0-8,3-14.6,9.1-20c6.1-5.4,13.7-8.1,22.7-8.1
		C100.7,261.9,110.2,267.9,117.1,279.7z"/>
	<path class="st0" d="M125.4,316.5c0-14.9,5.5-27.7,16.4-38.5c10.9-10.7,24-16.1,39.3-16.1c15.1,0,28.1,5.4,38.9,16.2
		c10.8,10.9,16.2,23.9,16.2,39c0,15.2-5.4,28.2-16.3,38.8c-10.9,10.7-24.1,16-39.6,16c-13.7,0-26-4.7-36.9-14.2
		C131.4,347.2,125.4,333.5,125.4,316.5z M141.5,316.7c0,11.7,3.9,21.3,11.8,28.9c7.8,7.5,16.9,11.3,27.1,11.3
		c11.1,0,20.5-3.8,28.2-11.5c7.6-7.8,11.5-17.2,11.5-28.4c0-11.3-3.8-20.8-11.3-28.4c-7.5-7.7-16.8-11.5-27.9-11.5
		c-11,0-20.3,3.8-27.9,11.5C145.3,296.2,141.5,305.5,141.5,316.7z"/>
</g>
<g>
	<path class="st0" d="M72.1,422.1v28.7H61.4v-70.7h12.1c5.9,0,10.4,0.4,13.4,1.2c3.1,0.8,5.7,2.4,8.1,4.7c4.1,4,6.1,9,6.1,15
		c0,6.5-2.2,11.6-6.5,15.4c-4.3,3.8-10.2,5.7-17.5,5.7L72.1,422.1L72.1,422.1z M72.1,412.2h4c9.8,0,14.7-3.8,14.7-11.3
		c0-7.3-5.1-10.9-15.2-10.9h-3.5V412.2z"/>
	<path class="st0" d="M136,420.7l21.9,30.1h-13l-20.2-28.9h-1.9v28.9h-10.7v-70.7h12.5c9.3,0,16.1,1.8,20.2,5.3
		c4.6,3.9,6.9,9.1,6.9,15.5c0,5-1.4,9.3-4.3,12.9C144.5,417.4,140.7,419.7,136,420.7z M122.8,412.6h3.4c10.1,0,15.2-3.9,15.2-11.6
		c0-7.2-4.9-10.8-14.7-10.8h-3.8v22.4H122.8z"/>
	<path class="st0" d="M163.4,415.2c0-9.9,3.6-18.5,10.9-25.6c7.3-7.1,16-10.7,26.2-10.7c10.1,0,18.7,3.6,25.9,10.8
		c7.2,7.2,10.8,15.9,10.8,26c0,10.2-3.6,18.8-10.9,25.9c-7.3,7.1-16.1,10.7-26.4,10.7c-9.1,0-17.3-3.2-24.6-9.5
		C167.4,435.6,163.4,426.5,163.4,415.2z M174.2,415.3c0,7.8,2.6,14.2,7.9,19.3c5.2,5,11.2,7.5,18.1,7.5c7.4,0,13.7-2.6,18.8-7.7
		c5.1-5.2,7.6-11.5,7.6-18.9c0-7.5-2.5-13.8-7.6-18.9c-5-5.1-11.2-7.7-18.6-7.7c-7.4,0-13.6,2.6-18.6,7.7
		C176.7,401.6,174.2,407.8,174.2,415.3z"/>
</g>
</svg>
